<svg xmlns="http://www.w3.org/2000/svg">
    <defs>
        <symbol id="password-visibility" fill="none" viewBox="0 0 20 20">
            <path stroke="var(--icon-foreground)" stroke-linecap="round" stroke-linejoin="round" stroke-width="1.5" d="M2 9.5S4.91 4 10 4s8 5.5 8 5.5-2.91 5.5-8 5.5-8-5.5-8-5.5Z"/>
            <path stroke="var(--icon-foreground)" stroke-linecap="round" stroke-linejoin="round" stroke-width="1.5" d="M10 12c1.105 0 2-1.12 2-2.5S11.105 7 10 7 8 8.12 8 9.5s.895 2.5 2 2.5Z"/>
        </symbol>
        <symbol id="action-result" fill="none" viewBox="0 0 269 230">
            <path fill="#F9F9F9" d="M124.085.018C75.992-.715 39.83 20.954 32.482 28.901c-2.337 3.209-9.592 11.92-5.435 26.59C31.788 72.219 37.378 72.912 23 88.958c-16.129 17.999-38.11 52.722-8.052 96.275 30.059 43.553 103.901 46.863 142.852 44.011 37.573-2.751 83.832-20.723 101.697-43.094 19.036-23.84 5.49-61.463-6.088-79.313-11.596-17.88 14.604-54.097-8.941-73.81C220.922 13.313 184.201.935 124.085.018Z"/>
            <path fill="#303030" d="M131.299 141.715c1.314-.142 2.472-.261 3.614-.395 3.21-.381 6.42-.403 9.638-.18 4.532.322 9.011 1.031 13.438 2.039.127.03.262.052.389.082.321.089.47-.038.56-.359.239-.836.522-1.657.791-2.486 2.247-6.883 6.809-11.624 13.349-14.603 4.24-1.933 8.66-2.568 13.267-2.254.866.059 1.717.179 2.613.358.104-1.083.231-2.128.298-3.173.291-4.487 1.546-8.705 3.472-12.744.463-.978.896-1.964 1.269-2.986 1.239-3.427 1.157-6.84-.179-10.199-.807-2.023-2.218-3.635-3.778-5.114-2.546-2.404-5.681-3.68-8.951-4.688-2.71-.836-5.503-1.232-8.302-1.568-2.643-.314-5.286-.642-7.936-.888a97.067 97.067 0 0 0-6.234-.381 232.414 232.414 0 0 0-14.245.007c-3.248.097-6.488.329-9.623 1.247-2.39.702-4.704 1.605-6.578 3.322-3.367 3.069-5.032 6.884-4.935 11.46.075 3.524.978 6.876 2.053 10.198.71 2.21 1.561 4.368 2.053 6.645.344 1.598.657 3.203.74 4.838.015.261.015.53-.008.791-.03.359-.224.59-.597.627-.366.038-.642-.164-.709-.582-.097-.627-.12-1.262-.217-1.889-.418-2.747-1.15-5.412-2.075-8.026-1.075-3.038-2.001-6.114-2.509-9.302-.724-4.532-.172-8.832 2.419-12.744 1.628-2.464 3.77-4.293 6.458-5.532 3.016-1.389 6.189-2.076 9.474-2.337 6.346-.508 12.707-.41 19.06-.216 5.913.179 11.774.94 17.619 1.806 3.382.5 6.623 1.546 9.691 3.046 3.106 1.523 5.599 3.77 7.481 6.652 1.821 2.793 2.434 5.913 2.195 9.221-.15 2.165-.837 4.173-1.718 6.136-.507 1.128-.992 2.27-1.493 3.405-1.47 3.3-2.083 6.786-2.389 10.355-.074.866-.112 1.739-.194 2.605-.037.404.097.62.485.769.837.321 1.606.792 2.36 1.277 2.613 1.68 4.83 5.764 3.113 10.071a13.9 13.9 0 0 1-2.688 4.263c-.254.284-.403.59-.522.949-1.023 3.075-2.076 6.144-3.106 9.212-1.493 4.45-3.076 8.87-4.271 13.409a126.352 126.352 0 0 0-1.791 7.943c-.53 2.763-.404 5.495.164 8.243.59 2.867 1.053 5.756 1.209 8.69.038.761.038 1.53-.156 2.284-.217.829-.568 1.568-1.486 1.77-.926.209-1.635-.254-2.218-.926-.433-.508-.709-1.105-.925-1.732-.68-1.926-1.008-3.927-1.381-5.92-.135-.725-.262-1.456-.523-2.151-.306-.828-.672-1.015-1.523-.791-.59.157-1.135.433-1.657.739-2.949 1.702-6.01 3.173-9.161 4.465-.216.089-.433.201-.679.194-.292-.008-.501-.135-.62-.403-.119-.277-.045-.53.164-.717.157-.134.344-.239.538-.321 3.232-1.426 6.361-3.069 9.451-4.786a7.008 7.008 0 0 1 1.755-.701c1.396-.329 2.441.179 3.038 1.478.441.97.598 2.016.784 3.053.306 1.658.598 3.323 1.113 4.935.157.5.336 1.001.627 1.449.149.224.306.433.552.552.224.112.411.075.523-.164.149-.314.202-.65.224-1.001.09-1.403-.075-2.792-.254-4.18a104.05 104.05 0 0 0-1.157-6.944c-.463-2.336-.366-4.666.03-6.995 1.097-6.383 2.941-12.565 5.062-18.679 1.06-3.061 2.09-6.137 3.135-9.206.082-.239.157-.478.239-.717-.187-.059-.261.015-.343.083-3.016 2.232-6.384 3.785-9.855 5.144-1.254.492-2.531.918-3.838 1.224-.522.119-.776.373-.918.903-1.911 7.048-4.091 14.021-6.226 21.002a44.982 44.982 0 0 1-1.62 4.457c-1.158 2.732-2.867 5.024-5.331 6.726-.567.388-1.12.799-1.605 1.284-.448.456-.829.956-1.053 1.568-.164.456-.104.545.381.605.657.082 1.299.224 1.911.478 1.493.619 2.292 1.724 2.3 3.359.007 1.105.007 2.218 0 3.323a66.087 66.087 0 0 1-.657 8.832c-.09.627-.224 1.246-.493 1.821-.59 1.24-1.837 1.329-2.613.194-.306-.44-.448-.948-.56-1.47-.373-1.71-.478-3.45-.59-5.182a194.046 194.046 0 0 0-.843-9.295c-.06-.559-.068-.574-.635-.522-1.628.157-3.233.478-4.845.746-3.472.575-6.966.769-10.482.635-1.478-.06-2.949-.127-4.427-.172-2.613-.089-5.197-.455-7.78-.866-3.591-.567-7.189-1.135-10.721-2.001-3.71-.903-7.398-1.918-10.982-3.255-.717-.268-.619-.365-1 .381-1.105 2.188-2.173 4.397-3.263 6.592a55.428 55.428 0 0 1-2.254 4.084c-.426.702-.874 1.389-1.479 1.949-.537.5-1.149.888-1.926.552-.799-.351-.97-1.052-.948-1.836.022-.934.246-1.829.545-2.703.97-2.844 2.15-5.614 3.27-8.399.47-1.172.948-2.344 1.366-3.539.807-2.314.829-4.643.269-7.01-.605-2.516-1.471-4.95-2.217-7.421-.948-3.158-1.747-6.353-2.203-9.623a40.564 40.564 0 0 1-.366-4.256c-.067-2.061-.492-4.009-1.403-5.876-.806-1.657-1.605-3.322-2.03-5.136a14.532 14.532 0 0 1-.277-5.181c.5-4.017 3.65-6.257 6.928-6.593a2.594 2.594 0 0 0 1.299-.477c4.099-2.882 8.623-4.734 13.58-5.503 2.143-.336 4.301-.47 6.466-.224 3.875.448 6.562 2.531 8.197 6.025 1.157 2.457 1.419 5.055 1.165 7.727-.202 1.777-.657 3.494-1.613 5.241Zm45.489 6.451c.269.037.441-.03.62-.075 1.329-.343 2.606-.836 3.875-1.359 3.919-1.612 7.682-3.486 10.691-6.599 1.276-1.329 2.344-2.785 3.061-4.48 1.329-3.158.239-6.667-2.628-8.548-1.404-.926-2.927-1.605-4.584-1.859-2.621-.396-5.256-.329-7.884.045-2.86.403-5.502 1.426-8.026 2.784-4.464 2.397-7.854 5.816-9.87 10.527-1.187 2.777-2.008 5.659-2.65 8.601-.993 4.561-1.971 9.123-3.307 13.595-.56 1.874-1.24 3.703-2.128 5.442-2.008 3.92-5.129 6.428-9.467 7.347-1.657.351-3.344.47-5.032.493a72.465 72.465 0 0 1-15.013-1.389c-2.546-.508-5.01-1.277-7.294-2.516-2.964-1.613-5.182-3.89-6.137-7.205-.583-2-.941-4.061-1.038-6.151-.157-3.45-.373-6.899-.336-10.363 0-.172.067-.366-.119-.545-.217 0-.351.179-.523.284-.56.351-1.165.612-1.829.717-1.687.253-3.203-.217-4.539-1.202-4.763-3.494-5.196-10.273-2.359-14.312.097-.135.276-.239.201-.53-1.71.739-2.934 1.881-3.45 3.673-.522 1.814-.447 3.65-.066 5.48.366 1.776 1.135 3.397 1.933 5.002 1.068 2.15 1.553 4.412 1.613 6.786.037 1.448.187 2.897.403 4.33.478 3.158 1.262 6.249 2.195 9.303.769 2.523 1.68 5.002 2.217 7.585.299 1.426.463 2.859.307 4.323-.187 1.754-.755 3.389-1.389 5.009-1.15 2.919-2.322 5.823-3.479 8.742-.344.859-.635 1.733-.806 2.643-.068.366-.165.739-.023 1.135.358-.142.5-.41.68-.634.589-.747 1.052-1.583 1.523-2.404 1.425-2.501 2.62-5.114 3.889-7.698.381-.784.784-1.553 1.202-2.314.426-.769.784-.874 1.635-.56.545.202 1.09.403 1.635.582 2.934.963 5.891 1.829 8.892 2.531 7.376 1.717 14.82 3.054 22.427 3.255 3.039.082 6.07.135 9.086-.253 2.486-.322 4.95-.74 7.428-1.098.292-.045.396-.179.448-.448.224-1.247.926-2.217 1.822-3.076.56-.53 1.172-.985 1.792-1.433 1.851-1.359 3.203-3.121 4.166-5.189.739-1.583 1.321-3.218 1.829-4.883 1.844-6.047 3.74-12.087 5.442-18.179.247-.888.501-1.769.754-2.672-.418-.135-.776-.023-1.134.022-1.449.187-2.905.276-4.33-.09-3.524-.911-5.421-2.911-5.831-6.084-.344-2.681-.045-5.338 1.149-7.802 1.292-2.68 3.36-4.345 6.451-4.532 4.233-.254 6.331 2.307 6.98 5.092.18.769.247 1.56.262 2.352.052 2.583-.486 5.084-1.083 7.57-.112.418-.276.784-.254 1.232Zm-18.38-3.457a29.002 29.002 0 0 0-.822-.187c-2.613-.507-5.241-.918-7.869-1.321-6.122-.941-12.236-.896-18.35.06-.366.059-.62.194-.844.5a28.577 28.577 0 0 1-6.107 6.04c-1.911 1.381-3.92 2.575-6.167 3.322-.657.217-1.329.329-2.023.284-1.419-.097-2.173-1.172-1.769-2.539.134-.462.373-.873.664-1.254.597-.784 1.314-1.433 2.105-2.016 3.405-2.493 7.22-4.121 11.274-5.203.746-.202 1.164-.575 1.508-1.217 1.194-2.21 1.456-4.599 1.411-7.055a11.587 11.587 0 0 0-1.12-4.816c-1.299-2.725-3.345-4.502-6.383-4.994-1.546-.254-3.099-.232-4.652-.09-4.897.433-9.421 1.949-13.572 4.591-.142.09-.321.142-.374.329.053.045.068.075.09.082.172.067.343.127.515.194 1.859.709 3.367 1.882 4.42 3.554 1.911 3.031 2.404 6.286 1.172 9.683-.366 1.008-.426 1.986-.411 3.016.03 3.166.18 6.324.292 9.489.074 2.113.35 4.196.761 6.271.635 3.218 2.471 5.54 5.241 7.175a19.81 19.81 0 0 0 4.95 2.053c3.195.844 6.45 1.344 9.735 1.635 3.472.314 6.951.448 10.422.097 4.741-.478 8.19-2.814 10.281-7.122a31.604 31.604 0 0 0 1.807-4.636c1.552-5.211 2.62-10.542 3.815-15.925Zm18.216-4.853c.03-.739-.06-1.478-.194-2.202-.314-1.74-1.165-3.136-2.837-3.823-1.725-.709-4.756-.664-6.548 1.412-.642.746-1.194 1.537-1.537 2.463-.695 1.829-.934 3.741-.837 5.667.15 2.979 1.747 4.95 5.204 5.621 1.613.314 3.195.008 4.786-.216.321-.045.425-.261.492-.538.157-.612.321-1.224.463-1.836.523-2.158.948-4.323 1.008-6.548Zm-65.99-.657c-.007-1.776-.425-3.337-1.224-4.8-1.165-2.113-2.912-3.419-5.294-3.89-.552-.112-.94.023-1.351.403-2.479 2.307-3.12 5.182-2.508 8.384.403 2.113 1.485 3.868 3.232 5.182a4.909 4.909 0 0 0 2.554.978c1.605.134 2.71-.702 3.471-2.038.747-1.344 1.06-2.808 1.12-4.219Zm17.597 4.913c-.097-.075-.202-.052-.299-.023-3.613 1.083-7.01 2.613-10.049 4.876a8.068 8.068 0 0 0-1.478 1.418 2.909 2.909 0 0 0-.485.814c-.157.448-.038.649.433.709.209.023.418 0 .627-.03.687-.089 1.329-.343 1.956-.619 3.554-1.583 6.555-3.898 9.116-6.817.074-.097.171-.186.179-.328Zm34.066 59.136c.284-.567.314-1.142.396-1.709.373-2.561.478-5.137.582-7.72.053-1.239.06-2.479.067-3.71 0-.419-.007-.852-.365-1.165-.538-.478-1.143-.844-1.859-.986-.538-.104-.59-.067-.523.493.373 3.352.657 6.712.888 10.071.083 1.232.18 2.472.426 3.689.067.343.09.724.388 1.037Zm-96.129-67.311c-.164-.687-.627-1.135-1.202-1.478-.5-.307-1.068-.433-1.642-.545-1.322-.254-2.666-.336-4.01-.441-2.941-.231-5.89-.425-8.832-.664-1.21-.097-2.411-.262-3.576-.627-.896-.277-1.71-.695-2.411-1.314-1.15-1.008-1.508-2.233-1.038-3.711.545-1.732 1.687-2.956 3.188-3.882 2.225-1.381 4.666-2.173 7.227-2.673 3.83-.746 7.697-.866 11.58-.851 5.912.022 11.728.754 17.44 2.285 1.403.373 2.784.806 4.068 1.508.605.328 1.187.694 1.702 1.149 2.113 1.852 2.42 4.808.695 7.041-.822 1.06-1.882 1.836-3.039 2.493-1.717.971-3.598 1.501-5.51 1.889-3.904.799-7.861 1.232-11.848 1.411-.082 0-.157.007-.239.007-.328-.022-.478.083-.418.456.067.44.067.896.112 1.336.217 2.135.03 4.271-.104 6.398-.15 2.263-.321 4.525-.44 6.787-.27 5.189-.24 10.385-.285 15.581 0 .239.008.478-.03.709-.074.411-.41.68-.776.65-.35-.023-.597-.269-.664-.672-.023-.127-.023-.262-.023-.396.06-5.114-.022-10.235.24-15.35.141-2.739.373-5.472.537-8.212.127-2.24.209-4.479-.068-6.719-.044-.336-.074-.597-.53-.612-2.292-.045-4.584-.075-6.86.351-2.36.448-4.241 1.679-5.772 3.486-1.732 2.053-2.993 4.397-4.158 6.794-1.986 4.076-3.599 8.324-5.48 12.445-.858 1.897-1.672 3.815-2.509 5.719-.194.448-.492.612-.85.493-.337-.112-.523-.485-.419-.918.075-.306.21-.598.321-.889 1.59-4.076 3.465-8.033 5.144-12.079 1.105-2.658 2.3-5.271 3.658-7.802a29.692 29.692 0 0 1 2.793-4.308c2.254-2.897 5.218-4.427 8.87-4.703 1.5-.112 3-.187 4.5-.127.21.059.419.097.658-.015Zm-1.202-14.67c-5.002-.008-7.652.209-11.363.94-2.188.433-4.263 1.18-6.174 2.352-1.075.664-1.964 1.508-2.427 2.725-.485 1.262-.246 2.016.881 2.777.874.59 1.867.851 2.882 1.016 2.27.365 4.562.433 6.854.627 2.441.201 4.897.298 7.331.619 2.203.292 4.017 1.098 4.816 3.375.097.269.29.351.552.336.261-.015.53-.015.791-.023 2.614-.067 5.204-.388 7.795-.731 2.172-.291 4.322-.687 6.405-1.374 1.703-.56 3.255-1.374 4.51-2.68 1.075-1.127 1.433-2.441.903-3.935-.336-.94-1.053-1.56-1.874-2.068-1.194-.746-2.508-1.217-3.86-1.59a66.209 66.209 0 0 0-18.022-2.366Z"/>
            <path fill="#303030" d="M90.275 165.673c.015.455-.18.754-.508.851-.343.097-.664-.037-.858-.396a2.383 2.383 0 0 1-.18-.522c-1.724-6.607-3.703-13.14-5.353-19.77-.567-2.277-1.112-4.561-1.657-6.838-.022-.105-.052-.209-.06-.314-.03-.425.15-.724.485-.791.366-.075.62.104.762.418.097.216.15.448.21.679 1.492 5.465 2.829 10.975 4.389 16.425.91 3.195 1.754 6.406 2.628 9.608.052.239.097.471.142.65ZM162.387 37.15c-.008.09-.023.171-.008.239.396 1.866.456 3.762.56 5.659.135 2.47-.119 4.897-.515 7.316-.321 1.956-1.09 3.74-2.486 5.204-.127.134-.239.29-.388.395-1.269.889-2.606 1.553-4.196 1.673-2.449.179-4.756-.292-7.018-1.217-2.77-1.142-5.33-2.643-7.764-4.375-.814-.575-1.523-1.292-2.3-1.964-.455.217-.836.545-1.217.874-1.037.896-2.172 1.665-3.27 2.478-1.269.941-2.516 1.904-3.852 2.77-.97.627-1.963 1.232-2.882 1.941-.209.165-.44.284-.724.284-.575 0-.858-.448-.62-.97.12-.262.336-.396.568-.53 1.53-.934 2.971-2.001 4.367-3.114.739-.59 1.553-1.082 2.315-1.65 1.284-.97 2.493-2.03 3.837-2.919.105-.075.202-.172.291-.261.127-.127.157-.239.015-.403-.597-.717-.948-1.568-1.284-2.434-.53-1.359-.448-2.695.06-4.01.41-1.067 1.045-2 1.851-2.821 1.262-1.3 2.755-2.285 4.338-3.128 1.299-.695 2.658-1.27 4.002-1.874 1.329-.598 2.725-.97 4.091-1.434.739-.254 1.545-.328 2.344-.134 1.113.276 1.59 1.097 1.277 2.202-.306 1.075-1.038 1.889-1.71 2.725-.485.62-1.06 1.172-1.62 1.717-1.515 1.471-3.031 2.927-4.629 4.308a1091.182 1091.182 0 0 1-5.405 4.621c-.276.24-.59.44-.903.68 1.134 1.269 2.471 2.24 3.889 3.09.993.598 1.979 1.203 3.017 1.74 1.649.844 3.352 1.538 5.143 2.016 1.635.433 3.278.485 4.92.03 1.673-.463 2.763-1.576 3.517-3.076.672-1.337.985-2.785 1.15-4.256.298-2.65.418-5.3.082-7.966-.127-.992-.15-2-.366-2.978-.097-.463-.224-.919-.321-1.382-.045-.239-.202-.358-.388-.47-1.158-.687-2.24-1.478-3.33-2.27a11.852 11.852 0 0 1-2.18-2.053c-1.359-1.687-1.232-3.606.44-5.144 1.561-1.44 3.382-2.03 5.465-1.388 1.673.515 2.867 1.56 3.248 3.337.187.888.06 1.777-.194 2.658-.329 1.157-.919 2.18-1.501 3.21-.396.702-.403.702.306 1.142 1.904 1.18 3.912 2.188 5.883 3.24 1.77.941 3.561 1.837 5.308 2.815 3.315 1.844 6.608 3.74 9.915 5.592 3.173 1.777 6.368 3.509 9.541 5.293 1.583.896 3.136 1.844 4.681 2.792 3.972 2.45 8.019 4.779 12.184 6.884 2.964 1.5 6.018 2.814 9.206 3.77 1.493.448 1.456.582 1.545-1.112.082-1.56.493-3.061 1.501-4.256 1.374-1.635 3.666-1.829 5.129.164 2.202 2.994-.038 6.242-2.412 6.936-.798.232-1.582.388-2.404.38-.38-.007-.515.135-.5.509.052 1.396.082 2.792.12 4.188.007.186.037.366.037.552.022 2.95.022 5.906.075 8.855.067 3.665.074 7.331.119 10.99.015 1.291.008 2.583.037 3.867.045 2.105.008 4.218.135 6.323.097 1.687.03 3.375.149 5.055.127 1.687.045 3.374.157 5.054.104 1.508.007 3.001 0 4.502-.008 2.135-.135 4.27-.142 6.398 0 1.896-.164 3.793-.149 5.681.022 1.927-.157 3.845-.157 5.764 0 1.426-.157 2.837-.187 4.255-.074 2.822-.366 5.63-.59 8.437-.164 2.098-.545 4.181-.985 6.249-.254 1.194-.515 1.037.821 1.403 2.247.612 4.413 1.434 6.383 2.695.844.538 1.65 1.135 2.442 1.747 1.209.941 2.389 1.912 3.471 2.994.859.851 1.673 1.769 2.128 2.919.336.851.12 1.195-.769 1.426-1.351.351-2.732.538-4.114.739-3.688.53-7.398.695-11.101.963-.575.045-1.157.053-1.74.068-2.292.067-4.584.171-6.876.224-1.769.037-3.523-.105-5.285-.142-2.837-.06-5.6-.642-8.392-1.001a3.634 3.634 0 0 1-1.209-.358c-.344-.172-.478-.493-.389-.859.09-.351.329-.537.687-.545.209 0 .426.023.627.068 3.323.783 6.712 1.097 10.109 1.246 3.688.157 7.376.008 11.064-.224.53-.029 1.053-.059 1.583-.067 2.135-.015 4.263-.231 6.383-.433 2.255-.216 4.525-.313 6.757-.746.298-.06.605-.127.97-.209-.336-.613-.694-1.128-1.134-1.576-2.322-2.411-4.928-4.442-7.922-5.957-1.463-.74-3.008-1.262-4.591-1.68-.47-.12-.582.059-.724.425-.545 1.404-1.18 2.755-2.091 3.972a15.048 15.048 0 0 1-3.725 3.487c-1.277.843-2.71 1.179-4.159 1.366-1.485.194-2.926-.217-4.128-1.075-1.172-.844-1.799-2.046-1.448-3.576.186-.807.485-1.561.993-2.218.798-1.03 1.724-1.881 2.881-2.538 2.651-1.516 5.51-2.031 8.511-1.956.553.015 1.105.104 1.65.157.612.059.62.059.777-.568.328-1.306.53-2.628.679-3.971.187-1.755.508-3.502.59-5.264.119-2.523.425-5.039.433-7.57 0-1.314.201-2.636.179-3.95-.03-2.209.224-4.419.134-6.629-.022-.657.068-1.314.09-1.979.067-2.53.149-5.061.179-7.592.03-1.926.075-3.853-.037-5.771-.09-1.688-.015-3.375-.149-5.055-.127-1.635-.06-3.27-.142-4.897-.179-3.48-.12-6.958-.179-10.43-.03-1.74.052-3.479-.015-5.218-.135-3.48-.06-6.959-.157-10.438-.075-2.583.007-5.166-.09-7.742-.015-.47-.164-.634-.597-.724-3.352-.71-6.45-2.098-9.534-3.546-3.106-1.463-6.084-3.15-9.041-4.883-2.867-1.68-5.689-3.426-8.563-5.091-2.419-1.396-4.883-2.718-7.324-4.077a911.327 911.327 0 0 1-5.928-3.33c-3.778-2.15-7.555-4.307-11.423-6.3-1.784-.919-3.538-1.882-5.308-2.808-.149-.082-.269-.194-.455-.171Zm-23.891 10.676c.15-.105.247-.15.321-.217 1.329-1.157 2.703-2.262 4.054-3.404 1.508-1.277 2.957-2.628 4.435-3.927a36.106 36.106 0 0 0 3.3-3.285c.575-.65 1.127-1.33 1.523-2.105.261-.508.157-.687-.403-.657a7.686 7.686 0 0 0-2.016.373c-2.023.68-3.979 1.5-5.913 2.419-1.978.933-3.755 2.135-5.271 3.703-.806.843-1.396 1.821-1.463 3.068-.067 1.523.411 2.83 1.433 4.032Zm79.869 108.963c-2.098-.366-4.061-.374-6.047.134-1.493.381-2.942.859-4.173 1.792-1.053.799-2.001 1.717-2.352 3.083-.276 1.083.157 2.001 1.172 2.449 2.74 1.224 5.099.291 7.279-1.351 1.008-.762 1.807-1.762 2.516-2.822.68-1.016 1.135-2.121 1.605-3.285ZM162.394 29.37c-.082-1.351-.649-2.47-1.956-2.971-1.097-.418-2.113-.224-3.143.164-.881.336-1.463.986-1.866 1.83-.247.522-.232 1.03.074 1.507.299.463.605.919 1.008 1.307 1.068 1.023 2.277 1.859 3.539 2.628.336.201.53.142.694-.172.493-.926 1.068-1.814 1.352-2.844.142-.478.276-.963.298-1.449Zm60.51 36.74c.18-.023.471-.053.755-.083 1.239-.127 2.09-.821 2.665-1.874.731-1.329.164-2.964-1.172-3.538-.344-.15-.65-.142-.993-.008-.672.269-1.001.836-1.277 1.441-.485 1.068-.687 2.21-.769 3.374-.045.672-.007.702.791.687Z"/>
            <path fill="#303030" d="M138.063 66.766c-.022-.41.097-.62.194-.828 1.449-3.039 2.927-6.063 4.562-9.004.075-.134.142-.284.231-.41.209-.3.493-.396.829-.247.306.134.515.538.396.851a15.27 15.27 0 0 1-.695 1.5c-1.284 2.45-2.426 4.958-3.62 7.451-.172.351-.307.74-.605 1.008-.239.224-.523.351-.866.217a.641.641 0 0 1-.426-.538Zm12.364 2.165c.224-3.046.448-5.965 1.052-8.832.03-.127.038-.26.083-.388.149-.44.455-.65.813-.575.366.082.545.389.486.859-.083.597-.232 1.194-.269 1.8-.15 2.366-.523 4.71-.627 7.084-.008.157 0 .321-.045.47-.112.389-.411.538-.784.545-.351.008-.642-.253-.709-.627-.023-.149 0-.306 0-.336Zm-48.364 37.882c-.858-1.165-1.844-2.188-3.016-3.016-3.262-2.307-6.786-4.032-10.758-4.771-2.912-.537-5.808-.724-8.698.097-.179.052-.358.105-.537.112-.314.008-.575-.134-.687-.433-.112-.299-.037-.575.194-.799.18-.171.396-.254.627-.313 1.979-.53 3.98-.762 6.032-.598 5.346.418 10.154 2.255 14.514 5.346 1.568 1.112 2.83 2.516 3.994 4.031.082.105.157.217.217.336.366.725.097 1.329-.695 1.486-.694.134-1.403.224-2.112.306-3.002.344-6.003.306-9.004.03-2.778-.254-5.473-.866-8.026-1.978-3.36-1.464-6.197-3.584-8.25-6.675-.171-.261-.336-.425-.686-.403-1.456.09-2.867.396-4.263.814-.336.104-.336.351-.359.612a242.288 242.288 0 0 1-.433 4.009 24.28 24.28 0 0 1-.276 1.799c-.067.366.022.515.425.545 1.606.112 3.188.389 4.756.769.642.157 1.27.351 1.874.62 2.135.963 3.293 2.561 3.248 4.95-.023 1.456-.262 2.889-.53 4.315-.448 2.382-.874 4.771-1.59 7.093-.254.806-.538 1.597-.978 2.329-.755 1.232-1.837 2.008-3.293 2.031-3.427.052-6.861.089-10.265-.448a7.457 7.457 0 0 1-1.822-.523c-1.18-.5-1.904-1.374-2.173-2.628-.253-1.217-.373-2.449-.545-3.673-.44-3.158-.85-6.324-1.045-9.512a9.083 9.083 0 0 1-.022-1.104c.03-.478.276-.747.65-.74.365 0 .619.254.656.74.112 1.5.277 2.993.47 4.486.404 3.061.777 6.122 1.233 9.168.164 1.105.761 1.755 1.799 2.054.866.253 1.747.403 2.643.477 2.523.224 5.062.18 7.592.232.105 0 .21-.008.314 0 1.351.03 2.24-.627 2.777-1.829.627-1.404.993-2.89 1.314-4.39.485-2.27.97-4.539 1.225-6.846.044-.396.082-.792.082-1.18.015-1.777-.747-2.934-2.382-3.643-1-.433-2.06-.627-3.12-.851-1.038-.217-2.091-.292-3.136-.433-.426-.06-.545.119-.627.485a15.87 15.87 0 0 1-.403 1.53 4.894 4.894 0 0 1-1.008 1.777c-.65.747-1.449 1.21-2.457 1.292-.933.082-1.851.007-2.732-.276-.821-.269-1.516-.74-1.926-1.538-.568-1.098-.336-2.277.612-3.069.575-.478 1.24-.799 1.941-1.03 1.411-.463 2.845-.791 4.338-.784.336 0 .537-.067.597-.448.269-1.769.515-3.546.65-5.338.007-.104-.008-.209-.023-.336-.343-.067-.62.112-.91.202-2.091.657-4.204 1.194-6.406 1.366-2.046.157-4.054-.06-6.063-.388-2.956-.493-5.793-1.344-8.488-2.68-2.322-1.15-4.323-2.718-6.122-4.57a48.9 48.9 0 0 1-5.077-6.159c-.284-.41-.567-.829-.724-1.314-.284-.866.104-1.493 1.015-1.553 3.823-.231 7.645-.343 11.46.075 2.792.306 5.51.844 8.123 1.934 4.143 1.732 7.488 4.382 9.862 8.212.068.112.15.216.21.336.193.388.462.508.903.396a17.49 17.49 0 0 1 1.866-.344c.433-.052.568-.254.553-.68-.068-1.575-.404-3.075-1.158-4.479-.798-1.47-1.851-2.755-2.911-4.031-2.292-2.77-4.338-5.704-6.197-8.78-2.105-3.494-3.367-7.242-3.852-11.288-.321-2.65-.59-5.294-.605-7.966 0-.262-.022-.53.067-.784.202-.568.74-.784 1.27-.5.134.074.26.179.38.276 3.785 3.188 6.63 7.055 8.466 11.661 1.076 2.688 1.725 5.473 2.15 8.325.045.313.06.627.247.993.239-1.038.448-2.009.687-2.972 1.306-5.21 3.501-9.989 6.98-14.132a21.237 21.237 0 0 1 5.876-4.876c.134-.074.276-.156.418-.224.739-.328 1.306-.111 1.575.65.254.702.321 1.44.433 2.165.71 4.748.045 9.302-1.986 13.655-1 2.15-2.351 4.054-4.001 5.756-1.135 1.18-2.352 2.27-3.562 3.375-1.104 1.015-2.224 2.023-3.157 3.217-.195.247-.359.523-.553.777-.18.246-.164.455 0 .717.732 1.157 1.44 2.329 2.165 3.501.052.082.09.194.246.217.217-.083.284-.329.404-.523 2.135-3.48 4.867-6.42 8.033-8.981 3.292-2.666 7.092-4.219 11.213-5.032 2.561-.508 5.16-.777 7.75-1.09 1.784-.217 3.546-.523 5.308-.852.179-.037.366-.089.545-.089.769 0 1.142.627.769 1.299-.142.254-.328.478-.5.71-.717.977-1.359 2.015-1.964 3.06-3.747 6.488-9.242 10.855-16.23 13.439-4.562 1.687-9.273 2.83-13.991 3.949-.77.18-1.546.343-2.315.523-.44.104-.716.694-.522 1.097.09.194.269.127.418.097.485-.12.97-.254 1.456-.358.978-.217 1.978-.299 2.979-.366.582-.045 1.008.157 1.314.68 1.269 2.202 3.113 3.837 5.233 5.181 2.747 1.747 5.786 2.665 8.974 3.09 3.494.463 6.995.501 10.489.03.194-.037.366-.007.56-.216Zm1.755-30.319c-.209-.104-.418-.03-.612.008-1.404.261-2.815.418-4.226.605-2.479.328-4.98.567-7.428 1.097-3.577.776-6.891 2.15-9.78 4.435-3.196 2.523-5.921 5.472-8.034 8.966-.216.358-.425.732-.664 1.075-.59.859-1.307.851-1.86-.022-.126-.202-.238-.41-.365-.612-.829-1.344-1.635-2.71-2.509-4.032-.44-.664-.44-1.202-.015-1.874.852-1.329 1.904-2.456 3.039-3.524 1.344-1.269 2.733-2.486 4.039-3.785 5.01-4.995 6.928-11.064 6.182-18.037-.075-.672-.097-1.359-.344-2.009-.306 0-.507.195-.724.329a19.423 19.423 0 0 0-4.442 3.785c-3.352 3.867-5.458 8.362-6.779 13.267-.65 2.396-1 4.853-1.411 7.294-.045.291-.105.575-.239.836-.157.306-.41.478-.769.448-.321-.022-.537-.21-.642-.508a3.414 3.414 0 0 1-.12-.455c-.156-.933-.328-1.867-.47-2.807-.35-2.322-.65-4.651-1.269-6.921-1.411-5.144-3.852-9.683-7.854-13.297-.142-.127-.239-.373-.53-.276 0 .366-.015.732 0 1.098.12 2.53.425 5.046.851 7.54.41 2.412 1.157 4.704 2.322 6.861a62.263 62.263 0 0 0 3.987 6.458c1.485 2.09 3.165 4.017 4.718 6.047 1.3 1.695 2.307 3.532 2.62 5.682.068.44.09.888.142 1.336.075.62.082.627.665.5a75.3 75.3 0 0 0 1.77-.41c4.718-1.12 9.436-2.255 13.99-3.95 5.256-1.963 9.736-5.002 13.185-9.474 1.336-1.74 2.381-3.673 3.546-5.524.045-.03.022-.09.03-.15ZM36.909 87.402c.045.373.217.545.351.731a50.375 50.375 0 0 0 4.614 5.615 21.661 21.661 0 0 0 8.511 5.584c2.27.821 4.6 1.336 6.98 1.643 2.18.283 4.36.276 6.533-.165 1.553-.313 3.061-.776 4.562-1.261.68-.217.68-.217.694-.926 0-.194.082-.418-.12-.59-.619.105-1.239.21-1.858.329-1.56.283-1.785.186-2.658-1.165-.097-.157-.194-.314-.299-.463-.873-1.292-1.814-2.523-2.971-3.584-2.598-2.396-5.674-3.904-9.049-4.808-2.941-.783-5.972-.992-9.003-1.09-2.083-.074-4.159.105-6.287.15Zm27.937 24.988c1.247.149 2.016-.553 2.539-1.635.216-.456.35-.941.455-1.426.127-.583.075-.65-.522-.627-1.464.059-2.86.403-4.196 1a3.095 3.095 0 0 0-.605.366c-.597.463-.635 1.09-.105 1.627.27.269.598.426.956.53.47.127.94.187 1.478.165Z"/>
        </symbol>
        <symbol id="success-sign" fill="none" viewBox="0 0 50 50">
            <path fill="#27AE60" fill-rule="evenodd" d="M4.167 25.001c0-11.506 9.328-20.833 20.834-20.833S45.834 13.495 45.834 25c0 11.504-9.327 20.833-20.833 20.833-11.506 0-20.834-9.329-20.834-20.833Zm20.166 8.11L35.5 19.612c.82-.988.611-2.398-.462-3.152-1.078-.754-2.61-.56-3.427.427l-9.25 11.18-3.99-4.693c-.832-.981-2.372-1.152-3.433-.385-1.063.765-1.249 2.18-.418 3.157l5.945 6.99a2.53 2.53 0 0 0 1.924.864h.017c.758-.005 1.469-.333 1.928-.889Z" clip-rule="evenodd"/>
        </symbol>
        <symbol id="error-sign" fill="none" viewBox="0 0 50 50">
            <path fill="#AE2727" d="M46 25c0 11.598-9.402 21-21 21S4 36.598 4 25 13.402 4 25 4s21 9.402 21 21Z"/>
            <g fill="#fff" fill-rule="evenodd" clip-rule="evenodd">
                <path d="M16.6 33.6c-.8-.8-.8-2 0-2.8l14.1-14.2c.8-.8 2-.8 2.8 0 .8.8.8 2 0 2.8L19.4 33.6c-.8.7-2 .7-2.8 0Z"/>
                <path d="M33.6 33.6c-.8.8-2 .8-2.8 0L16.6 19.4c-.8-.8-.8-2 0-2.8.8-.8 2-.8 2.8 0l14.1 14.1c.8.8.8 2.1.1 2.9Z"/>
            </g>
        </symbol>
    </defs>
</svg>
