<svg xmlns="http://www.w3.org/2000/svg">
  <defs>
    <symbol id="logo" fill="none" viewBox="0 0 261 261">
      <circle cx="130.5" cy="130.5" r="130.5" fill="var(--icon-background)" stroke="var(--icon-border)"/>
      <circle cx="60" cy="123" r="20" fill="var(--icon-foreground)"/>
      <circle cx="200" cy="123" r="20" fill="var(--icon-foreground)"/>
      <g fill="var(--icon-foreground)">
        <path d="M151.679 191.595c-7.176 0-13.117-5.487-14.063-12.622-.158-1.135-1.052-1.973-2.156-1.973h-.894c-1.13 0-2.05.865-2.155 2.027v.027a1.641 1.641 0 0 0 0 .514c1.209 9.837 9.384 17.459 19.294 17.459 9.911 0 18.086-7.622 19.295-17.459.158-1.352-.841-2.541-2.156-2.541h-.893c-1.104 0-2.024.865-2.156 1.973-.972 7.108-6.913 12.595-14.116 12.595Z"/>
        <path d="M118.295 191.595c-7.177 0-13.118-5.487-14.064-12.622-.158-1.135-1.051-1.973-2.155-1.973h-.868c-1.13 0-2.077.892-2.208 2.027 0 .189 0 .378.026.541 1.209 9.837 9.385 17.432 19.269 17.432 9.91 0 18.059-7.595 19.294-17.432.158-1.352-.867-2.568-2.182-2.568h-.867c-1.104 0-2.024.865-2.156 1.973-.946 7.135-6.887 12.622-14.089 12.622Z"/>
      </g>
    </symbol>
  </defs>
</svg>
